<?xml version="1.0" encoding="UTF-8"?>
<svg xmlns="http://www.w3.org/2000/svg" viewBox="0 0 1200 780" role="img" aria-label="How my projects fit together: netbox extended by 5 NetBox plugins (netbox-proxbox base plus netbox-ceph, netbox-pbs, netbox-pdm, netbox-packer) flowing into proxbox-api, which forks to netbox-sdk and proxmox-sdk; those SDKs speak REST to NetBox and to Proxmox VE plus its Ceph, PBS, and PDM service APIs.">
  <defs>
    <style>
      .bg { fill: #07101a; }
      .heading { fill: #adbac7; font: 600 16px ui-monospace, SFMono-Regular, Menlo, Consolas, monospace; }
      .caption { fill: #8b9aa8; font: 14px ui-monospace, SFMono-Regular, Menlo, Consolas, monospace; }
      .frame { fill: #0c1621; stroke: #1e3247; stroke-width: 1.5; }
      .frame-highlight { fill: #0c1621; stroke: #00f2d4; stroke-width: 1.5; stroke-opacity: 0.7; }
      .frame-featured { fill: rgba(0, 242, 212, 0.10); stroke: #00f2d4; stroke-width: 1.7; }
      .node-text { fill: #adbac7; font: 500 17px ui-monospace, SFMono-Regular, Menlo, Consolas, monospace; }
      .node-text-featured { fill: #00f2d4; font: 600 17px ui-monospace, SFMono-Regular, Menlo, Consolas, monospace; }
      .node-trailing { fill: #adbac7; font: 500 15px ui-monospace, SFMono-Regular, Menlo, Consolas, monospace; }
      .arrow { fill: #8b9aa8; }
      .arrow-dashed { fill: none; stroke: #8b9aa8; stroke-width: 1.8; stroke-dasharray: 6 5; stroke-opacity: 0.6; }
      .edge-label { fill: #8b9aa8; font: 12px ui-monospace, SFMono-Regular, Menlo, Consolas, monospace; }
    </style>

    <symbol id="netbox-logo" viewBox="0 0 1299.6 366">
      <path fill="#fff" d="M337.27,228.59c-12.35,0-22.88,7.8-26.94,18.74h-174.71c-2.9-7.83-9.12-14.04-16.95-16.95V55.67c10.94-4.06,18.74-14.59,18.74-26.94,0-15.87-12.86-28.73-28.73-28.73s-28.73,12.86-28.73,28.73c0,12.35,7.8,22.88,18.74,26.94v174.71c-10.94,4.06-18.74,14.59-18.74,26.94,0,4.28.94,8.33,2.62,11.98l-41.85,41.85c-3.65-1.68-7.7-2.62-11.98-2.62-15.87,0-28.73,12.86-28.73,28.73s12.86,28.73,28.73,28.73,28.73-12.86,28.73-28.73c0-4.28-.94-8.33-2.62-11.98l41.85-41.85c3.65,1.68,7.7,2.62,11.98,2.62,12.35,0,22.88-7.8,26.94-18.74h174.71c4.06,10.94,14.59,18.74,26.94,18.74,15.87,0,28.73-12.86,28.73-28.73s-12.86-28.73-28.73-28.73Z"/>
      <path fill="#00f2d4" d="M366,28.73c0,15.87-12.86,28.73-28.73,28.73-4.28,0-8.33-.94-11.98-2.62l-41.85,41.85c1.68,3.65,2.62,7.7,2.62,11.98,0,12.35-7.8,22.88-18.74,26.94v174.71c10.94,4.06,18.74,14.59,18.74,26.94,0,15.87-12.86,28.73-28.73,28.73s-28.73-12.86-28.73-28.73c0-12.35,7.8-22.88,18.74-26.94v-174.71c-7.83-2.9-14.04-9.12-16.95-16.95H55.67c-4.06,10.94-14.59,18.74-26.94,18.74-15.87,0-28.73-12.86-28.73-28.73s12.86-28.73,28.73-28.73c12.35,0,22.88,7.8,26.94,18.74h174.71c4.06-10.94,14.59-18.74,26.94-18.74,4.28,0,8.33.94,11.98,2.62l41.85-41.85c-1.68-3.65-2.62-7.7-2.62-11.98,0-15.87,12.86-28.73,28.73-28.73s28.73,12.86,28.73,28.73ZM579.76,136.45c-4.63-4.38-10.18-7.68-16.24-9.66-6.09-2.07-12.48-3.11-18.91-3.08-9.75-.17-19.37,2.17-27.95,6.78-2.68,1.56-5.23,3.35-7.61,5.34v-9.04h-34.53v134.64h34.53v-69.06c-.08-5.7.68-11.38,2.26-16.86,1.26-4.03,3.36-7.74,6.17-10.89,2.41-2.69,5.44-4.74,8.84-5.96,3.71-1.26,7.6-1.89,11.51-1.85,2.99,0,5.97.41,8.84,1.23,2.62.91,5,2.38,6.99,4.32,2.11,2.28,3.78,4.93,4.93,7.81,1.32,4.12,1.95,8.42,1.85,12.74v78.52h34.53v-85.1c.22-7.94-1.18-15.84-4.11-23.23-2.37-6.33-6.16-12.03-11.1-16.65ZM744.41,169.34c2.28,8.16,3.46,16.6,3.49,25.08v13.77h-98.46c.38,2.33,1.22,4.57,2.47,6.58,1.83,3.77,4.51,7.08,7.81,9.66,3.42,2.8,7.32,4.96,11.51,6.37,4.42,1.57,9.08,2.33,13.77,2.26,5.63.24,11.21-1.19,16.03-4.11,5.19-3.31,9.78-7.48,13.57-12.33l3.49-4.11,26.31,20.14-3.29,4.52c-14.18,18.09-34.12,27.34-59.2,27.34-9.78.09-19.49-1.72-28.57-5.34-8.34-3.34-15.84-8.46-21.99-15.01-6.02-6.49-10.7-14.1-13.77-22.4-3.18-8.83-4.78-18.16-4.73-27.54-.02-9.49,1.72-18.9,5.14-27.75,3.36-8.35,8.32-15.96,14.59-22.4,6.24-6.44,13.72-11.54,21.99-15.01,8.74-3.58,18.1-5.4,27.54-5.34,11.92,0,21.99,2.06,30.42,6.37,7.92,3.9,14.87,9.52,20.35,16.44,5.36,6.74,9.28,14.5,11.51,22.82ZM711.31,178.39c-.43-2.36-.98-4.69-1.64-6.99-1.14-3.45-3.04-6.61-5.55-9.25-2.45-2.78-5.56-4.9-9.04-6.17-8.68-3.42-18.36-3.27-26.93.41-3.87,1.69-7.37,4.13-10.28,7.19-2.81,2.83-5.05,6.18-6.58,9.87-.73,1.58-1.28,3.23-1.64,4.93h61.66ZM827.24,230.8c-2.56.57-5.18.84-7.81.82-2.41.12-4.82-.37-6.99-1.44-1.42-1.08-2.55-2.49-3.29-4.11-.93-2.36-1.42-4.87-1.44-7.4-.21-3.29-.41-6.58-.41-9.87v-50.57h33.71v-31.45h-33.71v-34.53h-34.53v34.53h-21.79v31.45h21.79v58.79c-.04,5.15.24,10.3.82,15.42.38,5.56,1.99,10.97,4.73,15.83,3.21,5.18,7.85,9.32,13.36,11.92,5.76,2.88,13.36,4.32,23.43,4.32,3.71-.04,7.42-.31,11.1-.82,4.47-.56,8.79-1.95,12.74-4.11l2.88-1.44v-34.33l-8.43,4.93c-1.93,1.02-4.01,1.72-6.17,2.06ZM997.03,166.46c3.16,8.91,4.76,18.3,4.73,27.75.04,9.32-1.56,18.57-4.73,27.34-3.07,8.3-7.75,15.92-13.77,22.4-6.1,6.56-13.53,11.74-21.79,15.21-8.94,3.62-18.51,5.44-28.16,5.34-9.17-.04-18.22-2.07-26.52-5.96-4.12-1.71-7.93-4.07-11.31-6.99v9.87h-34.53V53.41h34.53v83.04c3.23-2.59,6.75-4.8,10.48-6.58,8.54-4.07,17.88-6.18,27.34-6.17,9.65-.09,19.22,1.72,28.16,5.34,8.18,3.52,15.58,8.62,21.79,15.01,5.91,6.58,10.57,14.17,13.77,22.4ZM963.11,178.8c-1.41-4.39-3.8-8.39-6.99-11.72-3.07-3.26-6.78-5.85-10.89-7.61-9.47-3.57-19.92-3.57-29.39,0-4.12,1.76-7.83,4.35-10.89,7.61-3.12,3.37-5.5,7.37-6.99,11.72-1.71,4.96-2.55,10.17-2.47,15.42-.05,5.24.78,10.45,2.47,15.42,1.54,4.27,3.91,8.18,6.99,11.51,3.01,3.32,6.74,5.92,10.89,7.61,9.42,3.83,19.97,3.83,29.39,0,4.16-1.68,7.88-4.28,10.89-7.61,3.15-3.28,5.54-7.21,6.99-11.51,1.68-4.96,2.52-10.18,2.47-15.42.07-5.24-.77-10.46-2.47-15.42ZM1136.6,244.16c-28.24,27.15-72.89,27.15-101.13,0-13.17-13.29-20.56-31.24-20.55-49.95-.1-28.4,16.95-54.05,43.17-64.95,17.9-7.4,38.01-7.4,55.91,0,26.14,11,43.15,36.59,43.17,64.95,0,18.71-7.38,36.66-20.55,49.95ZM1118.51,178.8c-1.42-4.34-3.73-8.33-6.78-11.72-3.1-3.22-6.8-5.8-10.89-7.61-9.55-3.56-20.05-3.56-29.6,0-4.09,1.81-7.79,4.39-10.89,7.61-3.05,3.39-5.36,7.38-6.78,11.72-1.88,4.92-2.79,10.15-2.67,15.42-.08,5.26.82,10.49,2.67,15.42,1.47,4.25,3.77,8.17,6.78,11.51,3.05,3.28,6.77,5.87,10.89,7.61,9.49,3.84,20.11,3.84,29.6,0,4.13-1.74,7.84-4.33,10.89-7.61,3.01-3.34,5.32-7.26,6.78-11.51,1.75-4.95,2.66-10.16,2.67-15.42,0-5.25-.9-10.47-2.67-15.42ZM1291.58,126.79h-42.34l-26.52,39.47-26.93-39.47h-44.4l48.1,63.1-54.27,71.53h42.96l33.5-47.69,33.71,47.69h44.19l-54.27-71.53,46.25-63.1Z"/>
    </symbol>

    <symbol id="proxmox-logo" viewBox="0 0 800 129.03929">
      <defs>
        <clipPath id="proxmox-logo-hex-clip" clipPathUnits="userSpaceOnUse">
          <rect width="436.40189" height="326.40991" x="-82.999916" y="-347.71387" transform="matrix(0.73449161,0.67861776,-0.78497193,0.61953133,0,0)"/>
        </clipPath>
      </defs>
      <g transform="translate(1451.1374,38.932293)">
        <g transform="matrix(0.28026719,0,0,0.28026719,-1040.8325,61.254294)">
          <g transform="matrix(0.85286594,0,0,0.85286594,-2204.7964,-970.06495)">
            <g clip-path="url(#proxmox-logo-hex-clip)" transform="matrix(-0.99791979,0,0,0.99791979,1452.3586,746.04784)">
              <path fill="#adbac7" d="M 276.30443,226.6231 466.89227,17.020605 C 459.49903,9.6280871 450.88762,3.8194321 441.05796,-0.40537695 431.22756,-4.6295171 420.6664,-6.7823721 409.37437,-6.8639479 397.38099,-6.7722031 386.39328,-4.3959326 376.41123,0.26487096 366.4286,4.9263417 357.75623,11.32398 350.39413,19.457805 L 276.30327,100.37282 202.69985,19.457805 C 195.07335,11.32397 186.19787,4.9263248 176.07344,0.2648493 165.94881,-4.395959 155.00175,-6.7722224 143.2322,-6.8639479 131.93978,-6.7823616 121.3786,-4.629505 111.5486,-0.40536951 101.71855,3.8194345 93.107122,9.6280871 85.714287,17.020605 L 276.30769,226.61752"/>
            </g>
            <g clip-path="url(#proxmox-logo-hex-clip)" transform="matrix(0.99791979,0,0,-0.99791979,900.89604,1230.3576)">
              <path fill="#adbac7" d="M 276.30443,226.6231 466.89227,17.020605 C 459.49903,9.6280871 450.88762,3.8194321 441.05796,-0.40537695 431.22756,-4.6295171 420.6664,-6.7823721 409.37437,-6.8639479 397.38099,-6.7722031 386.39328,-4.3959326 376.41123,0.26487096 366.4286,4.9263417 357.75623,11.32398 350.39413,19.457805 L 276.30327,100.37282 202.69985,19.457805 C 195.07335,11.32397 186.19787,4.9263248 176.07344,0.2648493 165.94881,-4.395959 155.00175,-6.7722224 143.2322,-6.8639479 131.93978,-6.7823616 121.3786,-4.629505 111.5486,-0.40536951 101.71855,3.8194345 93.107122,9.6280871 85.714287,17.020605 L 276.30769,226.61752"/>
            </g>
            <path fill="#e57000" d="m 1160.6292,988.20538 0,0 -143.2665,-157.11232 c -8.333,-8.88721 -18.03061,-15.87754 -29.09279,-20.97078 -11.06252,-5.09255 -23.02366,-7.68889 -35.88343,-7.78914 -12.33843,0.0892 -23.87792,2.44147 -34.61849,7.05685 -10.74062,4.61613 -20.14972,10.96284 -28.22736,19.04016 L 1034.9383,988.20777 889.54063,1147.9854 c 8.07762,8.3329 17.48674,14.8349 28.22736,19.5062 10.74057,4.6712 22.28006,7.0457 34.61849,7.1234 12.89308,-0.1 24.92073,-2.6962 36.08307,-7.7891 11.16223,-5.0929 20.79325,-12.0833 28.89315,-20.9708 l 143.2662,-157.64917"/>
            <path fill="#e57000" d="m 1192.6208,988.20538 0,0 143.2665,-157.11232 c 8.333,-8.88721 18.0306,-15.87754 29.0928,-20.97078 11.0625,-5.09255 23.0237,-7.68889 35.8834,-7.78914 12.3385,0.0892 23.878,2.44147 34.6185,7.05685 10.7407,4.61613 20.1498,10.96284 28.2274,19.04016 l -145.3977,159.77762 145.3977,159.77763 c -8.0776,8.3329 -17.4867,14.8349 -28.2274,19.5062 -10.7405,4.6712 -22.28,7.0457 -34.6184,7.1234 -12.8931,-0.1 -24.9208,-2.6962 -36.0831,-7.7891 -11.1623,-5.0929 -20.7933,-12.0833 -28.8932,-20.9708 L 1192.6211,988.20593"/>
            <path fill="#adbac7" d="m -686.1811,-262.38737 -177.87034,0 c -6.9834,0.19403 -12.87689,2.71288 -17.68048,7.55658 -4.8036,4.84422 -7.30631,10.85073 -7.50813,18.01955 l 0,245.6858223 c 19.0852,-0.4763289 34.97338,-7.080262 47.6646,-19.8118193 12.69112,-12.731517 19.2789,-28.732724 19.76337,-48.003669 l 135.63098,0 c 19.28682,-0.476261 35.35261,-7.080194 48.19742,-19.811819 12.84432,-12.73145 19.51284,-28.732655 20.00558,-48.003665 l 0,-67.42798 c -0.49274,-19.28682 -7.16125,-35.35262 -20.00557,-48.19744 -12.84482,-12.84432 -28.91061,-19.51283 -48.19743,-20.00556 z m -135.63098,144.15635 0,-75.95335 118.96774,0 c 0.69411,-0.34694 3.47131,0.34736 8.33161,2.08291 4.85991,1.73595 7.63712,6.59605 8.33163,14.58033 l 0,42.23936 c 0.34694,0.7106 -0.34736,3.55238 -2.08291,8.52538 -1.73595,4.97326 -6.59606,7.81505 -14.58033,8.52537 z"/>
            <path fill="#adbac7" d="m -308.04521,-143.41963 0,-50.76474 c -0.4766,-19.28682 -7.08053,-35.35262 -19.81182,-48.19744 -12.73179,-12.84432 -28.733,-19.51283 -48.00367,-20.00556 l -177.87034,0 c -7.15293,0.19403 -13.09485,2.71288 -17.82578,7.55658 -4.73095,4.84422 -7.18522,10.85073 -7.36283,18.01955 l 0,245.6858223 c 19.10135,-0.4763289 35.05412,-7.080262 47.85836,-19.8118193 12.80414,-12.731517 19.45651,-28.732724 19.95713,-48.003669 l 0,-17.050751 77.1159,0 39.13922,55.802459 c 6.28082,9.009794 14.16033,16.0819732 23.63854,21.2165595 9.47781,5.1346021 20.06993,7.7503397 31.77641,7.8472208 5.64296,-0.00808 11.11663,-0.6700872 16.42102,-1.9860337 5.30388,-1.3159425 10.29316,-3.2373765 14.96786,-5.7643078 l -54.63991,-77.8909318 c 15.83952,-3.431052 28.82133,-11.197535 38.94546,-23.299469 10.12362,-12.10172 15.3551,-26.55286 15.69445,-43.35347 z m -203.05895,8.13786 0,-58.9026 118.19271,0 c 0.71026,-0.34694 3.55205,0.34736 8.52537,2.08291 4.97294,1.73595 7.81473,6.59605 8.52538,14.58033 l 0,25.57613 c 0.35502,0.69445 -0.35543,3.47166 -2.13135,8.33161 -1.77632,4.86025 -6.74945,7.63746 -14.9194,8.33162 z"/>
            <path fill="#adbac7" d="m -66.297193,-262.38737 -135.243457,0 c -19.27095,0.49275 -35.27217,7.16126 -48.00368,20.00558 -12.73156,12.84481 -19.33549,28.91061 -19.81181,48.19742 l 0,135.243464 c 0.47632,19.270945 7.08025,35.272154 19.81181,48.003675 12.73152,12.731561 28.73273,19.3354921 48.00368,19.8118133 l 135.243457,0 C -47.026519,8.3982534 -31.02531,1.7943203 -18.293518,-10.937237 -5.5622279,-23.668754 1.0417033,-39.669961 1.5182953,-58.940906 l 0,-135.243464 c -0.4765997,-19.28682 -7.0805328,-35.35262 -19.8118193,-48.19744 -12.731788,-12.84432 -28.732995,-19.51283 -48.003669,-20.00556 z m 0,186.395713 c 0.355023,0.710536 -0.355427,3.552325 -2.13135,8.525376 -1.776324,4.973203 -6.749453,7.814992 -14.919401,8.525375 l -101.141956,0 c -0.71053,0.355294 -3.55232,-0.355156 -8.52538,-2.13135 -4.97321,-1.776054 -7.815,-6.749182 -8.52537,-14.919401 l 0,-101.529473 c -0.3553,-0.69411 0.35515,-3.47132 2.13134,-8.33162 1.77604,-4.85992 6.74918,-7.63712 14.91941,-8.33162 l 101.141956,0 c 0.710265,-0.34694 3.552054,0.34736 8.525376,2.08291 4.972932,1.73595 7.814721,6.59605 8.525375,14.58033 z"/>
            <path fill="#e57000" d="m 343.24581,-243.01152 c -5.87764,-5.87708 -12.72377,-10.49499 -20.5384,-13.85374 -7.8152,-3.35821 -16.2114,-5.06974 -25.18861,-5.13459 -9.55093,0.0729 -18.35079,1.96208 -26.3996,5.66744 -8.04928,3.70589 -15.00843,8.79205 -20.87749,15.25848 l -58.51508,64.32783 -58.90259,-64.32783 c -6.02275,-6.63598 -12.96576,-11.77058 -20.82905,-15.40381 -7.86343,-3.6327 -16.550262,-5.47341 -26.060517,-5.52211 -8.977519,0.0649 -17.373714,1.77639 -25.18861,5.1346 -7.814936,3.35874 -14.661064,7.97665 -20.538405,13.85373 L 145.99962,-126.75639 40.207458,-10.501271 c 5.877333,6.0630371 12.723461,10.79396706 20.538405,14.1928038 7.814904,3.398847 16.211099,5.1265285 25.18861,5.1830495 9.381091,-0.072659 18.132507,-1.9618037 26.254287,-5.6674401 8.12163,-3.70562508 15.12923,-8.7917806 21.0228,-15.2584822 l 58.51507,-64.327834 58.51508,64.327834 c 5.86906,6.4667016 12.82821,11.55285519 20.87749,15.2584764 8.04881,3.7056326 16.84867,5.5947793 26.3996,5.6674459 8.97721,-0.056513 17.3734,-1.7841929 25.18861,-5.1830438 7.81464,-3.39884052 14.66077,-8.1297724 20.5384,-14.1928095 L 237.45365,-126.75639 z"/>
            <path fill="#adbac7" d="m 695.81803,-262.38737 -42.62688,0 c -13.94281,0.19403 -26.35949,3.97232 -37.25008,11.33487 -10.89107,7.36308 -19.14194,17.14787 -24.75266,29.35442 l 0.38752,-0.77503 -39.91426,87.57886 -39.52674,-87.57886 0,0.77503 c -5.44152,-12.20655 -13.64395,-21.99134 -24.60734,-29.35442 -10.96359,-7.36256 -23.42871,-11.14084 -37.39539,-11.33487 l -42.23936,0 c -7.33862,0.19403 -13.39357,2.71288 -18.16487,7.55658 -4.77131,4.84422 -7.24173,10.85073 -7.41126,18.01955 l 0,245.6858223 c 19.10135,-0.4763289 35.05411,-7.080262 47.85835,-19.8118193 12.80415,-12.731517 19.45652,-28.732724 19.95714,-48.003669 l 0,-129.818224 c 0.0241,-1.76784 0.55699,-3.17259 1.59851,-4.21425 1.04138,-1.04125 2.44613,-1.57408 4.21425,-1.5985 1.00908,0.0325 1.99402,0.35542 2.95482,0.96878 0.96064,0.61377 1.65494,1.32422 2.0829,2.13135 l 75.17831,165.857313 c 1.42074,2.962919 3.51979,5.368749 6.29715,7.217496 2.77705,1.848803 5.84489,2.801451 9.20353,2.857948 3.33409,-0.04034 6.35349,-0.928394 9.05821,-2.664177 2.70436,-1.73573 4.85185,-4.076977 6.44248,-7.02375 l 75.17831,-166.24483 c 0.58909,-0.80712 1.34797,-1.51757 2.27666,-2.13135 0.92817,-0.61337 1.97769,-0.9363 3.14858,-0.96878 1.5821,0.0244 2.87382,0.55726 3.87517,1.59851 1.00081,1.04165 1.5175,2.4464 1.55007,4.21424 l 0,129.818224 c 0.50027,19.270945 7.15264,35.272154 19.95712,48.003675 12.8039,12.731561 28.75667,19.3354921 47.85836,19.8118133 l 0,-245.6858223 c -0.17794,-7.16882 -2.63221,-13.17533 -7.36282,-18.01955 -4.73127,-4.8437 -10.67319,-7.36255 -17.82578,-7.55658 z"/>
            <path fill="#adbac7" d="m 963.0584,-262.38737 -135.24346,0 c -19.27095,0.49275 -35.27216,7.16126 -48.00368,20.00558 -12.73156,12.84481 -19.33549,28.91061 -19.81181,48.19742 l 0,135.243464 c 0.47632,19.270945 7.08025,35.272154 19.81181,48.003675 12.73153,12.731561 28.73273,19.3354921 48.00368,19.8118133 l 135.24346,0 c 19.27067,-0.4763289 35.27188,-7.080262 48.0037,-19.8118193 12.7313,-12.731517 19.3352,-28.732724 19.8118,-48.003669 l 0,-135.243464 c -0.4766,-19.28682 -7.0805,-35.35262 -19.8118,-48.19744 -12.73182,-12.84432 -28.73303,-19.51283 -48.0037,-20.00556 z m 0,186.395713 c 0.35502,0.710536 -0.35543,3.552325 -2.13135,8.525376 -1.77633,4.973203 -6.74946,7.814992 -14.9194,8.525375 l -101.14196,0 c -0.71053,0.355294 -3.55232,-0.355156 -8.52538,-2.13135 -4.97321,-1.776054 -7.815,-6.749182 -8.52537,-14.919401 l 0,-101.529473 c -0.35529,-0.69411 0.35515,-3.47132 2.13134,-8.33162 1.77604,-4.85992 6.74918,-7.63712 14.91941,-8.33162 l 101.14196,0 c 0.71026,-0.34694 3.55205,0.34736 8.52537,2.08291 4.97293,1.73595 7.81472,6.59605 8.52538,14.58033 z"/>
            <path fill="#e57000" d="m 1372.6013,-243.01152 c -5.8777,-5.87708 -12.7238,-10.49499 -20.5384,-13.85374 -7.8152,-3.35821 -16.2114,-5.06974 -25.1886,-5.13459 -9.551,0.0729 -18.3508,1.96208 -26.3996,5.66744 -8.0493,3.70589 -15.0085,8.79205 -20.8775,15.25848 l -58.5151,64.32783 -58.9026,-64.32783 c -6.0227,-6.63598 -12.9658,-11.77058 -20.829,-15.40381 -7.8635,-3.6327 -16.5503,-5.47341 -26.0606,-5.52211 -8.9775,0.0649 -17.3737,1.77639 -25.1886,5.1346 -7.8149,3.35874 -14.661,7.97665 -20.5384,13.85373 l 105.7922,116.25513 -105.7922,116.255119 c 5.8774,6.0630371 12.7235,10.79396706 20.5384,14.1928038 7.8149,3.398847 16.2111,5.1265285 25.1886,5.1830495 9.3811,-0.072659 18.1326,-1.9618037 26.2543,-5.6674401 8.1217,-3.70562508 15.1293,-8.7917806 21.0228,-15.2584822 l 58.5151,-64.327834 58.5151,64.327834 c 5.869,6.4667016 12.8282,11.55285519 20.8775,15.2584764 8.0488,3.7056326 16.8486,5.5947793 26.3996,5.6674459 8.9772,-0.056513 17.3734,-1.7841929 25.1886,-5.1830438 7.8146,-3.39884052 14.6607,-8.1297724 20.5384,-14.1928095 L 1266.8091,-126.75639 z"/>
          </g>
        </g>
      </g>
    </symbol>

    <symbol id="arrow-down" viewBox="0 0 22 32" preserveAspectRatio="none">
      <path class="arrow" d="M 7 0 H 15 V 18 H 22 L 11 32 L 0 18 H 7 Z"/>
    </symbol>
  </defs>

  <rect class="bg" width="1200" height="780"/>

  <text class="heading" x="40" y="36">// how my projects fit together</text>
  <text class="caption" x="367" y="36">· hover any node for details</text>

  <!-- ROW 1: netbox (center) -->
  <rect class="frame-highlight" x="510" y="70" width="180" height="64" rx="6"/>
  <use href="#netbox-logo" x="540" y="84" width="120" height="36"/>

  <!-- CONNECTOR 1: netbox → 5 plugins (fork) -->
  <rect class="arrow" x="596" y="134" width="8" height="22"/>
  <rect class="arrow" x="196" y="156" width="808" height="8"/>
  <use href="#arrow-down" x="189" y="164" width="22" height="32"/>
  <use href="#arrow-down" x="389" y="164" width="22" height="32"/>
  <use href="#arrow-down" x="589" y="164" width="22" height="32"/>
  <use href="#arrow-down" x="789" y="164" width="22" height="32"/>
  <use href="#arrow-down" x="989" y="164" width="22" height="32"/>
  <text class="edge-label" x="615" y="151">plugin</text>

  <!-- ROW 2: 5 plugins -->
  <rect class="frame-highlight" x="125" y="198" width="150" height="56" rx="6"/>
  <text class="node-text" x="200" y="232" text-anchor="middle">[ netbox-ceph ]</text>
  <rect class="frame-highlight" x="325" y="198" width="150" height="56" rx="6"/>
  <text class="node-text" x="400" y="232" text-anchor="middle">[ netbox-pbs ]</text>
  <rect class="frame-featured" x="520" y="198" width="160" height="56" rx="6"/>
  <text class="node-text-featured" x="600" y="232" text-anchor="middle">[ netbox-proxbox ]</text>
  <rect class="frame-highlight" x="725" y="198" width="150" height="56" rx="6"/>
  <text class="node-text" x="800" y="232" text-anchor="middle">[ netbox-pdm ]</text>
  <rect class="frame-highlight" x="920" y="198" width="160" height="56" rx="6"/>
  <text class="node-text" x="1000" y="232" text-anchor="middle">[ netbox-packer ]</text>

  <!-- BASE EXTENDS (dashed): netbox-proxbox is the base; siblings extend it -->
  <path class="arrow-dashed" d="M 200 258 V 274 H 575"/>
  <path class="arrow-dashed" d="M 400 258 V 274"/>
  <path class="arrow-dashed" d="M 1000 258 V 274 H 625"/>
  <path class="arrow-dashed" d="M 800 258 V 274"/>
  <text class="edge-label" x="600" y="270" text-anchor="middle">base</text>

  <!-- CONNECTOR 2: 5 plugins → proxbox-api (funnel) -->
  <rect class="arrow" x="196" y="288" width="8" height="22"/>
  <rect class="arrow" x="396" y="288" width="8" height="22"/>
  <rect class="arrow" x="596" y="288" width="8" height="22"/>
  <rect class="arrow" x="796" y="288" width="8" height="22"/>
  <rect class="arrow" x="996" y="288" width="8" height="22"/>
  <rect class="arrow" x="196" y="310" width="808" height="8"/>
  <use href="#arrow-down" x="589" y="318" width="22" height="32"/>
  <text class="edge-label" x="618" y="343">HTTP / SSE / WS</text>

  <!-- ROW 3: proxbox-api (center) -->
  <rect class="frame-highlight" x="500" y="352" width="200" height="56" rx="6"/>
  <text class="node-text" x="600" y="386" text-anchor="middle">[ proxbox-api ]</text>

  <!-- CONNECTOR 3: proxbox-api → 2 SDKs (fork) -->
  <rect class="arrow" x="596" y="408" width="8" height="22"/>
  <rect class="arrow" x="345" y="430" width="510" height="8"/>
  <use href="#arrow-down" x="339" y="438" width="22" height="32"/>
  <use href="#arrow-down" x="839" y="438" width="22" height="32"/>

  <!-- ROW 4: netbox-sdk and proxmox-sdk -->
  <rect class="frame-highlight" x="275" y="472" width="150" height="56" rx="6"/>
  <text class="node-text" x="350" y="506" text-anchor="middle">[ netbox-sdk ]</text>
  <rect class="frame-highlight" x="775" y="472" width="150" height="56" rx="6"/>
  <text class="node-text" x="850" y="506" text-anchor="middle">[ proxmox-sdk ]</text>

  <!-- CONNECTOR 4: SDKs → REST API row -->
  <use href="#arrow-down" x="339" y="528" width="22" height="40"/>
  <use href="#arrow-down" x="839" y="528" width="22" height="40"/>
  <text class="edge-label" x="370" y="554">REST</text>
  <text class="edge-label" x="870" y="554">REST</text>

  <!-- ROW 5: netbox REST API and Proxmox VE -->
  <rect class="frame" x="245" y="570" width="210" height="60" rx="6"/>
  <use href="#netbox-logo" x="258" y="584" width="105" height="32"/>
  <text class="node-trailing" x="370" y="606">REST API</text>
  <rect class="frame" x="745" y="570" width="210" height="60" rx="6"/>
  <use href="#proxmox-logo" x="760" y="588" width="140" height="24"/>
  <text class="node-trailing" x="908" y="606">VE</text>

  <!-- CONNECTOR 5: Proxmox VE → 3 services (fork from right column) -->
  <rect class="arrow" x="846" y="630" width="8" height="22"/>
  <rect class="arrow" x="220" y="652" width="630" height="8"/>
  <use href="#arrow-down" x="213" y="660" width="22" height="32"/>
  <use href="#arrow-down" x="513" y="660" width="22" height="32"/>
  <use href="#arrow-down" x="813" y="660" width="22" height="32"/>

  <!-- ROW 6: 3 Proxmox services -->
  <rect class="frame" x="149" y="694" width="150" height="56" rx="6"/>
  <use href="#proxmox-logo" x="162" y="708" width="90" height="22"/>
  <text class="node-trailing" x="259" y="728">· ceph</text>

  <rect class="frame" x="449" y="694" width="150" height="56" rx="6"/>
  <use href="#proxmox-logo" x="462" y="708" width="90" height="22"/>
  <text class="node-trailing" x="559" y="728">· PBS</text>

  <rect class="frame" x="749" y="694" width="150" height="56" rx="6"/>
  <use href="#proxmox-logo" x="762" y="708" width="90" height="22"/>
  <text class="node-trailing" x="859" y="728">· PDM</text>
</svg>
